<svg width="520" height="441" viewBox="0 0 520 441" fill="none" xmlns="http://www.w3.org/2000/svg">
<path d="M281.966 1.31582C271.761 4.53227 266.804 14.1816 261.555 41.2778C259.514 51.7068 257.57 64.0853 257.57 66.522C257.57 68.179 260.972 68.6663 261.944 67.2043C262.236 66.6195 262.624 64.1828 262.819 61.5511C263.305 56.2878 267.29 35.4297 269.72 26.1702C271.858 18.0803 275.26 11.4525 278.856 8.33353C284.688 3.46012 295.088 4.04493 299.753 9.69808C304.71 15.5462 305.974 24.4158 306.751 57.6524L307.432 84.6511L310.639 79.9726C315.596 72.4676 319.095 70.0309 324.635 70.0309C328.621 70.0309 329.981 70.5182 332.8 72.9549C338.729 78.2182 338.729 78.6081 338.729 127.732C338.729 165.355 338.923 172.47 340.09 172.86C343.394 174.127 343.589 171.788 343.589 127.245C343.589 77.146 343.492 76.1713 336.299 69.641C330.564 64.4752 320.748 63.598 314.916 67.8866L312.292 69.8359L311.708 50.7322C310.542 15.2538 307.043 4.82467 295.185 1.31582C289.353 -0.438607 287.604 -0.438607 281.966 1.31582Z" fill="#8C78F9"/>
<path d="M283.619 15.1563C275.746 24.2208 268.942 67.6916 258.056 176.271C257.279 184.069 256.015 197.227 255.14 205.512C254.265 213.796 253.002 226.565 252.224 233.777C246.295 292.063 241.241 327.444 237.936 333.487C236.479 336.314 233.951 335.047 231.619 330.271C229.092 325.202 227.925 318.672 225.981 299.081C223.94 278.32 221.413 270.815 216.65 270.815C214.512 270.815 211.499 274.616 208.875 280.465C206.542 285.923 203.432 289.334 201.002 289.334C192.449 289.334 190.31 276.566 187.103 202.587C184.673 147.128 182.729 126.367 178.744 112.819C174.467 98.0042 167.955 97.3219 162.026 110.967C159.791 116.133 158.527 120.324 149.293 154.828C140.157 188.552 133.062 204.634 124.994 209.898C118.288 214.284 102.736 215.843 51.2224 217.208C7.8729 218.28 0 219.449 0 224.518C0 227.734 3.49907 229.391 14.1907 231.243C36.9346 235.044 93.114 233.582 121.981 228.319C139.574 225.103 149.391 217.598 156.972 201.613C166.108 182.412 168.733 177.733 170.288 177.441C173.495 176.856 174.079 183.289 174.953 233.29C176.314 307.756 177.869 326.957 183.409 335.242C188.464 342.942 191.963 341.187 199.252 327.347C202.071 321.986 205.279 317.015 206.25 316.528C208.778 315.163 210.721 316.04 211.888 318.964C212.957 321.986 215.387 346.645 216.262 363.897C217.428 387.972 220.83 410.682 224.232 417.407C226.37 421.696 230.355 425.79 232.493 425.79C235.312 425.79 241.047 419.941 244.06 413.996C248.434 405.224 252.807 389.044 256.987 365.359C262.721 333.292 268.845 279.88 273.607 219.157C275.454 197.032 280.897 121.494 280.897 118.96C280.897 118.862 281.48 118.765 282.258 118.765C283.035 118.765 283.91 119.837 284.202 121.202C285.271 125.393 289.742 134.165 292.172 136.796C295.963 140.988 298.684 140.11 302.766 133.385C304.71 130.169 306.654 127.537 307.043 127.537C310.153 127.537 310.445 130.656 311.125 181.437C312.292 258.242 315.499 287.385 324.247 298.789C326.288 301.518 327.357 302.005 330.467 302.005C340.284 302.005 348.351 287.19 357.779 251.322C358.849 247.325 361.279 237.968 363.125 230.463C367.013 215.063 368.665 211.36 373.914 206.291C380.815 199.566 390.923 196.642 400.546 198.591C423.581 203.27 497.548 205.804 511.058 202.393C517.959 200.541 520 199.274 520 196.544C520 191.963 507.656 190.306 465.57 189.429C415.708 188.357 402.587 186.895 393.645 181.339C388.202 177.928 385.48 173.152 383.245 163.21C382.37 158.922 380.815 154.633 379.843 153.658C377.705 151.514 372.456 151.417 369.54 153.464C365.069 156.583 360.015 169.936 353.697 195.277C344.658 232.023 341.353 242.062 337.66 245.571C335.521 247.618 335.133 247.618 333.772 246.253C331.342 243.816 329.593 234.655 328.426 217.695C327.551 205.804 327.551 189.819 328.523 150.442C329.884 94.3004 329.398 83.2865 325.51 79.2903C323.664 77.4384 323.664 77.4384 321.331 79.7776C319.97 81.1422 316.471 86.6004 313.361 91.9611C307.432 102.488 304.613 106.094 302.572 106.094C298.781 106.094 296.643 89.5245 296.449 59.3093C296.351 39.036 294.893 22.9537 292.658 17.7879C291.006 14.1816 290.325 13.4993 287.895 13.4993C286.34 13.4993 284.396 14.2791 283.619 15.1563Z" fill="#8C78F9"/>
<path d="M256.598 73.9296C256.598 75.3916 257.084 75.879 258.348 75.684C259.222 75.4891 260 74.7093 260 73.9296C260 73.1498 259.222 72.3701 258.348 72.1752C257.084 71.9802 256.598 72.4676 256.598 73.9296Z" fill="#8C78F9"/>
<path d="M256.307 81.3371C255.529 82.1169 256.404 83.6764 257.667 83.6764C258.153 83.6764 258.542 82.9941 258.542 82.2143C258.542 80.7523 257.376 80.265 256.307 81.3371Z" fill="#8C78F9"/>
<path d="M339.215 178.61C339.215 179.39 339.604 180.267 340.09 180.56C341.159 181.242 343.297 178.805 342.422 177.928C341.256 176.758 339.215 177.246 339.215 178.61Z" fill="#8C78F9"/>
<path d="M339.409 186.213C339.992 187.967 342.131 188.26 342.131 186.603C342.131 185.725 341.45 185.043 340.576 185.043C339.701 185.043 339.215 185.531 339.409 186.213Z" fill="#8C78F9"/>
<path d="M162.998 243.134C162.221 243.914 163.095 245.473 164.359 245.473C164.845 245.473 165.234 244.791 165.234 244.011C165.234 242.549 164.067 242.062 162.998 243.134Z" fill="#8C78F9"/>
<path d="M162.998 249.957C161.637 251.419 162.415 253.271 164.359 253.271C165.72 253.271 166.206 252.784 166.011 251.614C165.72 249.86 164.067 248.982 162.998 249.957Z" fill="#8C78F9"/>
<path d="M162.609 281.049C163.678 318.867 166.692 337.386 173.301 346.061C178.355 352.786 189.047 357.074 189.047 352.396C189.047 351.129 187.783 350.154 185.353 349.277C180.396 347.523 177.383 344.599 174.467 338.556C170.968 331.538 168.344 309.9 167.469 281.537L166.692 258.632L164.359 258.339L162.026 257.949L162.609 281.049Z" fill="#8C78F9"/>
<path d="M279.634 279.197C278.856 279.977 279.731 281.537 280.994 281.537C281.48 281.537 281.869 280.854 281.869 280.075C281.869 278.613 280.703 278.125 279.634 279.197Z" fill="#8C78F9"/>
<path d="M278.662 286.995C277.301 288.457 278.079 290.309 280.022 290.309C281.383 290.309 281.869 289.821 281.675 288.652C281.383 286.897 279.731 286.02 278.662 286.995Z" fill="#8C78F9"/>
<path d="M277.69 295.865C277.398 296.352 276.232 304.052 275.163 313.214C267.095 376.568 260.583 407.953 252.224 422.476C247.267 430.955 239.492 436.608 232.785 436.511C229.383 436.414 223.357 433.782 221.996 431.735C220.344 429.493 217.72 429.981 217.72 432.612C217.72 435.341 222.871 439.045 228.314 440.41C238.422 442.846 248.045 437.681 255.529 425.984C260.875 417.505 267.192 395.964 271.664 371.11C274.385 356.197 281.869 301.128 281.869 296.449C281.869 295.085 278.37 294.695 277.69 295.865Z" fill="#8C78F9"/>
<path d="M200.224 349.18C200.224 350.057 200.905 350.739 201.779 350.739C203.432 350.739 203.14 348.595 201.391 348.01C200.71 347.815 200.224 348.302 200.224 349.18Z" fill="#8C78F9"/>
<path d="M194.101 350.349C192.74 351.714 193.421 353.761 195.17 353.468C196.045 353.273 196.822 352.493 196.822 351.811C196.822 350.252 195.073 349.374 194.101 350.349Z" fill="#8C78F9"/>
<path d="M210.527 416.725C209.458 417.797 209.944 418.967 211.402 418.967C212.179 418.967 212.86 418.577 212.86 418.089C212.86 416.822 211.305 415.945 210.527 416.725Z" fill="#8C78F9"/>
<path d="M213.832 425.79C213.832 426.862 214.512 427.739 215.29 427.739C216.067 427.739 216.748 426.862 216.748 425.79C216.748 424.717 216.067 423.84 215.29 423.84C214.512 423.84 213.832 424.717 213.832 425.79Z" fill="#8C78F9"/>
</svg>
