<svg width="25" height="25" viewBox="0 0 25 25" fill="none" xmlns="http://www.w3.org/2000/svg">
<path d="M4.35111 25H21.6196C23.9 25 24.9854 24.3251 24.9854 22.8402C24.9854 19.3035 20.4381 14.1874 12.9922 14.1874C5.53257 14.1874 0.985352 19.3035 0.985352 22.8402C0.985352 24.3251 2.07064 25 4.35111 25ZM3.70543 22.9617C3.34825 22.9617 3.19714 22.8672 3.19714 22.5838C3.19714 20.3564 6.68654 16.2257 12.9922 16.2257C19.2841 16.2257 22.7735 20.3564 22.7735 22.5838C22.7735 22.8672 22.6362 22.9617 22.279 22.9617H3.70543ZM12.9922 12.5001C16.2617 12.5001 18.9269 9.65174 18.9269 6.16901C18.9269 2.71329 16.2756 0 12.9922 0C9.73633 0 7.05747 2.76728 7.05747 6.19602C7.05747 9.66523 9.72259 12.5001 12.9922 12.5001ZM12.9922 10.4617C10.9865 10.4617 9.26925 8.58532 9.26925 6.19602C9.26925 3.84719 10.959 2.03834 12.9922 2.03834C15.0391 2.03834 16.7152 3.8067 16.7152 6.16901C16.7152 8.55833 15.0116 10.4617 12.9922 10.4617Z" fill="white"/>
</svg>
