<svg width="20" height="20" viewBox="0 0 20 20" fill="none" xmlns="http://www.w3.org/2000/svg">
<path d="M11.9436 20C11.0632 20 10.7974 19.3023 10.4983 18.3388L8.95354 13.3056C8.7874 12.6412 8.82058 12.3255 9.20274 11.9435L18.9536 1.42857C19.0698 1.29569 19.0698 1.14619 18.9536 1.04651C18.8539 0.98007 18.721 0.946845 18.5882 1.06312L8.12294 10.8804C7.70767 11.2458 7.37544 11.2458 6.76082 11.0631L1.57808 9.5016C0.647841 9.21924 0 8.92029 0 8.05646C0 7.35877 0.614615 6.86052 1.41196 6.57802L17.8737 0.26578C18.3224 0.0996641 18.6878 0 19.0199 0C19.6346 0 20 0.382057 20 0.996683C20 1.3289 19.9171 1.69435 19.7509 2.14286L13.4884 18.5216C13.1396 19.4351 12.6412 20 11.9436 20Z" fill="#1A0129"/>
</svg>
