<svg width="21" height="21" viewBox="0 0 21 21" fill="none" xmlns="http://www.w3.org/2000/svg">
<path d="M21 13.2157C21 17.8824 17.8235 20.9412 13.0784 20.9412H10.451C9.5098 20.9412 8.88235 20.3726 8.88235 19.4902C8.88235 18.6275 9.49022 18.0196 10.4118 18.0196H13.0784C16.0589 18.0196 18.0785 16.0981 18.0785 13.2157C18.0785 10.5295 16.098 8.74518 13.098 8.74518H7.37255L5.37253 8.64713L6.2941 9.31374L8.66667 11.5883C8.96082 11.8824 9.1176 12.2549 9.1176 12.6667C9.1176 13.5098 8.49015 14.1766 7.68627 14.1766C7.23528 14.1766 6.88235 14.0196 6.60783 13.7452L1.47056 8.49018C1.09803 8.13731 0.941162 7.70592 0.941162 7.25492C0.941162 6.82355 1.11764 6.37257 1.47056 6.01963L6.58823 0.823537C6.88235 0.529421 7.21568 0.372559 7.66666 0.372559C8.50973 0.372559 9.1176 1.03923 9.1176 1.88238C9.1176 2.29414 8.96082 2.66669 8.66667 2.9412L6.68627 4.86277L5.35292 5.90199L7.37255 5.82356H13.098C17.8432 5.82356 21 8.76476 21 13.2157Z" fill="#1A0129"/>
</svg>
