<svg width="18" height="17" viewBox="0 0 18 17" fill="none" xmlns="http://www.w3.org/2000/svg">
<path d="M2.83592 17H15.1731C17.0607 17 18 16.0396 18 14.1374V2.86257C18 0.960348 17.0607 0 15.1731 0H2.83592C0.948319 0 0 0.951113 0 2.86257V14.1374C0 16.0488 0.948319 17 2.83592 17ZM2.70045 15.5132C1.89664 15.5132 1.45409 15.0793 1.45409 14.2205V5.51275C1.45409 4.66322 1.89664 4.21998 2.70045 4.21998H15.2905C16.0943 4.21998 16.5459 4.66322 16.5459 5.51275V14.2205C16.5459 15.0793 16.0943 15.5132 15.2905 15.5132H2.70045ZM7.24334 7.53502H7.77617C8.09231 7.53502 8.19166 7.44268 8.19166 7.11948V6.57468C8.19166 6.25148 8.09231 6.1499 7.77617 6.1499H7.24334C6.92724 6.1499 6.81886 6.25148 6.81886 6.57468V7.11948C6.81886 7.44268 6.92724 7.53502 7.24334 7.53502ZM10.2419 7.53502H10.7747C11.0908 7.53502 11.1991 7.44268 11.1991 7.11948V6.57468C11.1991 6.25148 11.0908 6.1499 10.7747 6.1499H10.2419C9.92572 6.1499 9.81736 6.25148 9.81736 6.57468V7.11948C9.81736 7.44268 9.92572 7.53502 10.2419 7.53502ZM13.2403 7.53502H13.7732C14.0893 7.53502 14.1977 7.44268 14.1977 7.11948V6.57468C14.1977 6.25148 14.0893 6.1499 13.7732 6.1499H13.2403C12.9242 6.1499 12.8249 6.25148 12.8249 6.57468V7.11948C12.8249 7.44268 12.9242 7.53502 13.2403 7.53502ZM4.24485 10.5546H4.76868C5.09383 10.5546 5.19317 10.4622 5.19317 10.139V9.59421C5.19317 9.27106 5.09383 9.17871 4.76868 9.17871H4.24485C3.91972 9.17871 3.82037 9.27106 3.82037 9.59421V10.139C3.82037 10.4622 3.91972 10.5546 4.24485 10.5546ZM7.24334 10.5546H7.77617C8.09231 10.5546 8.19166 10.4622 8.19166 10.139V9.59421C8.19166 9.27106 8.09231 9.17871 7.77617 9.17871H7.24334C6.92724 9.17871 6.81886 9.27106 6.81886 9.59421V10.139C6.81886 10.4622 6.92724 10.5546 7.24334 10.5546ZM10.2419 10.5546H10.7747C11.0908 10.5546 11.1991 10.4622 11.1991 10.139V9.59421C11.1991 9.27106 11.0908 9.17871 10.7747 9.17871H10.2419C9.92572 9.17871 9.81736 9.27106 9.81736 9.59421V10.139C9.81736 10.4622 9.92572 10.5546 10.2419 10.5546ZM13.2403 10.5546H13.7732C14.0893 10.5546 14.1977 10.4622 14.1977 10.139V9.59421C14.1977 9.27106 14.0893 9.17871 13.7732 9.17871H13.2403C12.9242 9.17871 12.8249 9.27106 12.8249 9.59421V10.139C12.8249 10.4622 12.9242 10.5546 13.2403 10.5546ZM4.24485 13.5833H4.76868C5.09383 13.5833 5.19317 13.4818 5.19317 13.1586V12.6137C5.19317 12.2906 5.09383 12.1982 4.76868 12.1982H4.24485C3.91972 12.1982 3.82037 12.2906 3.82037 12.6137V13.1586C3.82037 13.4818 3.91972 13.5833 4.24485 13.5833ZM7.24334 13.5833H7.77617C8.09231 13.5833 8.19166 13.4818 8.19166 13.1586V12.6137C8.19166 12.2906 8.09231 12.1982 7.77617 12.1982H7.24334C6.92724 12.1982 6.81886 12.2906 6.81886 12.6137V13.1586C6.81886 13.4818 6.92724 13.5833 7.24334 13.5833ZM10.2419 13.5833H10.7747C11.0908 13.5833 11.1991 13.4818 11.1991 13.1586V12.6137C11.1991 12.2906 11.0908 12.1982 10.7747 12.1982H10.2419C9.92572 12.1982 9.81736 12.2906 9.81736 12.6137V13.1586C9.81736 13.4818 9.92572 13.5833 10.2419 13.5833Z" fill="white"/>
</svg>
