<svg width="24" height="26" viewBox="0 0 24 26" fill="none" xmlns="http://www.w3.org/2000/svg">
<path d="M6.97789 4.43483H4.48894C3.11434 4.43483 2 5.52494 2 6.86966V10.5219M6.97789 4.43483H16.9337M6.97789 4.43483V2M6.97789 4.43483V6.86966M16.9337 4.43483H19.4226C20.7972 4.43483 21.9116 5.52494 21.9116 6.86966V10.5219M16.9337 4.43483V2M16.9337 4.43483V6.86966M21.9116 10.5219H2M21.9116 10.5219V11.435M2 10.5219V21.4786C2 22.8234 3.11434 23.9135 4.48894 23.9135H11.9558M17.6001 15.3916V19.6958M17.6001 19.6958V24M17.6001 19.6958H22M17.6001 19.6958H13.2003" stroke="black" stroke-width="2.5" stroke-linecap="round"/>
</svg>
