<svg width="21" height="16" viewBox="0 0 21 16" fill="none" xmlns="http://www.w3.org/2000/svg">
<path d="M3.65489 13.096C3.12765 13.096 2.77914 12.7214 2.77914 12.1967V10.4638C2.77914 9.92977 3.12765 9.56445 3.65489 9.56445H5.84425C6.37148 9.56445 6.71999 9.92977 6.71999 10.4638V12.1967C6.71999 12.7214 6.37148 13.096 5.84425 13.096H3.65489ZM0 5.90165V3.77519H21V5.90165H0ZM2.80596 16H18.194C20.0706 16 21 15.0352 21 13.1054V2.90399C21 0.974242 20.0706 0 18.194 0H2.80596C0.938298 0 0 0.974242 0 2.90399V13.1054C0 15.0352 0.938298 16 2.80596 16Z" fill="#1A0129"/>
</svg>
