<svg width="20" height="14" viewBox="0 0 20 14" fill="none" xmlns="http://www.w3.org/2000/svg">
<path d="M9.99987 9.50012C11.3806 9.50012 12.4999 8.38084 12.4999 7.00012C12.4999 5.61941 11.3806 4.50012 9.99987 4.50012C8.61916 4.50012 7.49987 5.61941 7.49987 7.00012C7.49987 8.38084 8.61916 9.50012 9.99987 9.50012Z" fill="white"/>
<path d="M19.1732 6.32043C18.1396 4.722 16.7986 3.36418 15.2955 2.39348C13.6326 1.31848 11.7967 0.750122 9.98652 0.750122C8.32558 0.750122 6.69238 1.22473 5.13222 2.16067C3.54121 3.11497 2.0998 4.50911 0.847849 6.30403C0.706515 6.50688 0.628677 6.74717 0.624226 6.99437C0.619774 7.24156 0.688911 7.4845 0.822849 7.69231C1.85449 9.30676 3.18222 10.6665 4.66191 11.6239C6.32793 12.7032 8.1209 13.2501 9.98652 13.2501C11.8111 13.2501 13.651 12.6864 15.3068 11.6204C16.8092 10.6529 18.1475 9.28996 19.1771 7.67825C19.3065 7.47527 19.3748 7.23944 19.3741 6.99877C19.3735 6.75809 19.3037 6.52267 19.1732 6.32043ZM9.9998 10.7501C9.25812 10.7501 8.5331 10.5302 7.91641 10.1181C7.29973 9.70608 6.81908 9.12041 6.53525 8.43518C6.25143 7.74996 6.17716 6.99596 6.32186 6.26853C6.46655 5.5411 6.8237 4.87292 7.34815 4.34847C7.8726 3.82402 8.54078 3.46687 9.26821 3.32218C9.99564 3.17748 10.7496 3.25175 11.4349 3.53557C12.1201 3.8194 12.7058 4.30005 13.1178 4.91673C13.5299 5.53342 13.7498 6.25844 13.7498 7.00012C13.7487 7.99433 13.3532 8.9475 12.6502 9.65052C11.9472 10.3535 10.994 10.749 9.9998 10.7501Z" fill="white"/>
</svg>
