<svg width="20" height="16" viewBox="0 0 20 16" fill="none" xmlns="http://www.w3.org/2000/svg">
<path d="M16.875 15.5002C16.7929 15.5003 16.7116 15.4842 16.6358 15.4527C16.56 15.4213 16.4911 15.3751 16.4332 15.317L2.68324 1.56696C2.57097 1.44879 2.50931 1.29145 2.5114 1.12847C2.51349 0.965497 2.57916 0.809784 2.69441 0.694533C2.80966 0.579282 2.96537 0.513612 3.12835 0.511526C3.29132 0.509439 3.44867 0.571101 3.56683 0.683363L17.3168 14.4334C17.4042 14.5208 17.4637 14.6321 17.4877 14.7533C17.5118 14.8745 17.4995 15.0001 17.4522 15.1143C17.4049 15.2285 17.3248 15.3261 17.2221 15.3947C17.1194 15.4634 16.9986 15.5001 16.875 15.5002Z" fill="white"/>
<path d="M9.68755 10.3381L7.66451 8.31502C7.65292 8.30352 7.63801 8.29595 7.62189 8.29335C7.60578 8.29076 7.58925 8.29329 7.57464 8.30057C7.56003 8.30785 7.54807 8.31953 7.54043 8.33396C7.5328 8.3484 7.52988 8.36486 7.53209 8.38103C7.61376 8.90589 7.8602 9.39118 8.2358 9.76677C8.61139 10.1424 9.09668 10.3888 9.62154 10.4705C9.63771 10.4727 9.65417 10.4698 9.66861 10.4621C9.68304 10.4545 9.69471 10.4425 9.702 10.4279C9.70928 10.4133 9.71181 10.3968 9.70922 10.3807C9.70662 10.3646 9.69905 10.3497 9.68755 10.3381Z" fill="white"/>
<path d="M10.3125 5.6623L12.3387 7.6877C12.3502 7.69935 12.3652 7.70707 12.3814 7.70975C12.3976 7.71243 12.4142 7.70994 12.4289 7.70264C12.4436 7.69533 12.4556 7.68357 12.4633 7.66904C12.4709 7.65451 12.4738 7.63794 12.4715 7.62168C12.39 7.09611 12.1434 6.61011 11.7673 6.23404C11.3912 5.85797 10.9052 5.61135 10.3797 5.52988C10.3634 5.52737 10.3467 5.53007 10.3321 5.53759C10.3174 5.5451 10.3055 5.55706 10.2981 5.57175C10.2906 5.58643 10.288 5.6031 10.2906 5.61936C10.2932 5.63562 10.3008 5.65065 10.3125 5.6623Z" fill="white"/>
<path d="M19.1797 8.6783C19.309 8.47532 19.3774 8.2395 19.3767 7.99882C19.376 7.75815 19.3063 7.52272 19.1758 7.32049C18.1422 5.72205 16.8012 4.36424 15.298 3.39354C13.6328 2.31854 11.7969 1.75018 9.9875 1.75018C9.03364 1.75149 8.08626 1.90701 7.18203 2.21072C7.15672 2.21914 7.13399 2.2339 7.116 2.25359C7.09801 2.27327 7.08536 2.29724 7.07925 2.3232C7.07314 2.34916 7.07378 2.37626 7.0811 2.4019C7.08843 2.42755 7.1022 2.45089 7.1211 2.46971L8.96641 4.31502C8.98558 4.33423 9.00942 4.34811 9.03558 4.3553C9.06175 4.36249 9.08933 4.36275 9.11563 4.35604C9.74112 4.20361 10.3953 4.21478 11.0152 4.38847C11.6352 4.56216 12.1999 4.89253 12.6552 5.34776C13.1104 5.80299 13.4407 6.36776 13.6144 6.98768C13.7881 7.6076 13.7993 8.2618 13.6469 8.88729C13.6402 8.91352 13.6405 8.94103 13.6477 8.96712C13.6549 8.99321 13.6688 9.01698 13.6879 9.03611L16.3422 11.6924C16.3698 11.72 16.4068 11.7363 16.4458 11.7381C16.4849 11.7398 16.5232 11.7268 16.5531 11.7017C17.5748 10.8309 18.4602 9.81173 19.1797 8.6783Z" fill="white"/>
<path d="M10 11.7502C9.43232 11.7502 8.87204 11.6214 8.36141 11.3734C7.85078 11.1253 7.40312 10.7646 7.05219 10.3184C6.70125 9.87221 6.4562 9.35215 6.33552 8.79745C6.21483 8.24275 6.22165 7.66789 6.35547 7.11621C6.3621 7.08997 6.36181 7.06246 6.35462 7.03638C6.34743 7.01029 6.33359 6.98651 6.31445 6.96738L3.70351 4.35527C3.67583 4.32755 3.63874 4.31125 3.5996 4.30958C3.56046 4.30792 3.52212 4.32102 3.49219 4.34629C2.53945 5.15918 1.65625 6.14824 0.848826 7.3041C0.707492 7.50695 0.629654 7.74724 0.625202 7.99444C0.620751 8.24163 0.689887 8.48457 0.823826 8.69238C1.85547 10.3068 3.18281 11.6666 4.66289 12.624C6.33047 13.7033 8.12187 14.2502 9.9875 14.2502C10.951 14.2476 11.9082 14.0954 12.825 13.799C12.8505 13.7909 12.8735 13.7763 12.8918 13.7567C12.9101 13.737 12.923 13.7131 12.9293 13.687C12.9356 13.6609 12.9351 13.6337 12.9279 13.6079C12.9206 13.5821 12.9069 13.5586 12.8879 13.5396L11.0336 11.6857C11.0145 11.6666 10.9907 11.6528 10.9646 11.6456C10.9385 11.6384 10.911 11.6381 10.8848 11.6447C10.5951 11.7149 10.2981 11.7503 10 11.7502Z" fill="white"/>
</svg>
