<svg width="27" height="25" viewBox="0 0 27 25" fill="none" xmlns="http://www.w3.org/2000/svg">
<path d="M0 8.22439C0 14.0251 4.85348 19.7304 12.5212 24.6324C12.8067 24.8093 13.2145 25 13.5 25C13.7855 25 14.1934 24.8093 14.4925 24.6324C22.1465 19.7304 27 14.0251 27 8.22439C27 3.40413 23.6964 0 19.2916 0C16.7764 0 14.7372 1.19825 13.5 3.03648C12.2901 1.21187 10.2236 0 7.70847 0C3.30363 0 0 3.40413 0 8.22439ZM2.18883 8.22439C2.18883 4.60239 4.52719 2.19226 7.68128 2.19226C10.2372 2.19226 11.7054 3.7854 12.5755 5.14705C12.9426 5.69171 13.1738 5.8415 13.5 5.8415C13.8263 5.8415 14.0303 5.67809 14.4245 5.14705C15.3626 3.81263 16.7764 2.19226 19.3187 2.19226C22.4729 2.19226 24.8112 4.60239 24.8112 8.22439C24.8112 13.2897 19.4683 18.75 13.7855 22.5354C13.6495 22.6307 13.5544 22.6988 13.5 22.6988C13.4456 22.6988 13.3505 22.6307 13.2281 22.5354C7.53174 18.75 2.18883 13.2897 2.18883 8.22439Z" fill="white"/>
</svg>
