<svg width="48" height="36" viewBox="0 0 48 36" fill="none" xmlns="http://www.w3.org/2000/svg">
<g filter="url(#filter0_d_117_276)">
<path d="M25 14C25 12.6739 25.5268 11.4021 26.4645 10.4645C27.4021 9.52678 28.6739 9 30 9C31.3261 9 32.5979 9.52678 33.5355 10.4645C34.4732 11.4021 35 12.6739 35 14C35 15.3261 34.4732 16.5979 33.5355 17.5355C32.5979 18.4732 31.3261 19 30 19C29.3434 19 28.6932 18.8707 28.0866 18.6194C27.48 18.3681 26.9288 17.9998 26.4645 17.5355C26.0002 17.0712 25.6319 16.52 25.3806 15.9134C25.1293 15.3068 25 14.6566 25 14ZM44 14C44 10.287 42.525 6.72601 39.8995 4.1005C37.274 1.475 33.713 0 30 0C19.5 0 4 14 4 14C4 14 19.5 28 30 28C33.713 28 37.274 26.525 39.8995 23.8995C42.525 21.274 44 17.713 44 14Z" fill="#8C78F9"/>
<path d="M43.5 14C43.5 17.5804 42.0776 21.0142 39.5459 23.5459C37.0142 26.0776 33.5804 27.5 30 27.5C27.4762 27.5 24.613 26.6561 21.7119 25.3564C18.8175 24.0597 15.9215 22.3265 13.3418 20.5859C10.7635 18.8463 8.51061 17.1049 6.90137 15.7988C6.09702 15.146 5.45377 14.6027 5.0127 14.2227C4.91798 14.1411 4.83351 14.0659 4.75781 14C4.83351 13.9341 4.91798 13.8589 5.0127 13.7773C5.45377 13.3973 6.09702 12.854 6.90137 12.2012C8.51061 10.8951 10.7635 9.15365 13.3418 7.41406C15.9215 5.67354 18.8175 3.94028 21.7119 2.64355C24.613 1.34389 27.4762 0.5 30 0.5C33.5804 0.5 37.0142 1.92236 39.5459 4.4541C42.0776 6.98584 43.5 10.4196 43.5 14ZM35.5 14C35.5 12.5413 34.9201 11.1428 33.8887 10.1113C32.8572 9.07988 31.4587 8.5 30 8.5C28.5413 8.5 27.1428 9.07988 26.1113 10.1113C25.1443 11.0784 24.5742 12.368 24.5068 13.7275L24.5 14C24.5 14.7222 24.6426 15.4372 24.9189 16.1045C25.1953 16.7718 25.6006 17.3779 26.1113 17.8887C26.6221 18.3994 27.2282 18.8047 27.8955 19.0811C28.5628 19.3574 29.2778 19.5 30 19.5C31.4587 19.5 32.8572 18.9201 33.8887 17.8887C34.9201 16.8572 35.5 15.4587 35.5 14Z" stroke="#1A0129"/>
</g>
<defs>
<filter id="filter0_d_117_276" x="0" y="0" width="48" height="36" filterUnits="userSpaceOnUse" color-interpolation-filters="sRGB">
<feFlood flood-opacity="0" result="BackgroundImageFix"/>
<feColorMatrix in="SourceAlpha" type="matrix" values="0 0 0 0 0 0 0 0 0 0 0 0 0 0 0 0 0 0 127 0" result="hardAlpha"/>
<feOffset dy="4"/>
<feGaussianBlur stdDeviation="2"/>
<feComposite in2="hardAlpha" operator="out"/>
<feColorMatrix type="matrix" values="0 0 0 0 0 0 0 0 0 0 0 0 0 0 0 0 0 0 0.25 0"/>
<feBlend mode="normal" in2="BackgroundImageFix" result="effect1_dropShadow_117_276"/>
<feBlend mode="normal" in="SourceGraphic" in2="effect1_dropShadow_117_276" result="shape"/>
</filter>
</defs>
</svg>
