<svg width="21" height="21" viewBox="0 0 21 21" fill="none" xmlns="http://www.w3.org/2000/svg">
<path d="M21 10.5L16.8 6.3V9.45H8.4V11.55H16.8V14.7L21 10.5ZM18.9 16.8C17.5777 18.563 15.7343 19.8653 13.6308 20.5224C11.5272 21.1795 9.27028 21.1581 7.17961 20.4612C5.08893 19.7643 3.27052 18.4272 1.98196 16.6395C0.693392 14.8517 0 12.7038 0 10.5C0 8.29623 0.693392 6.14833 1.98196 4.36054C3.27052 2.57275 5.08893 1.23572 7.17961 0.538825C9.27028 -0.158067 11.5272 -0.179484 13.6308 0.477608C15.7343 1.1347 17.5777 2.43699 18.9 4.2H16.0335C14.8211 3.13075 13.3259 2.43405 11.7273 2.19351C10.1288 1.95297 8.49474 2.17881 7.02134 2.84392C5.54795 3.50904 4.29777 4.58517 3.42083 5.94319C2.54388 7.30122 2.07742 8.88344 2.07742 10.5C2.07742 12.1166 2.54388 13.6988 3.42083 15.0568C4.29777 16.4148 5.54795 17.491 7.02134 18.1561C8.49474 18.8212 10.1288 19.047 11.7273 18.8065C13.3259 18.5659 14.8211 17.8693 16.0335 16.8H18.9Z" fill="#1A0129"/>
</svg>
