<svg width="118" height="100" viewBox="0 0 118 100" fill="none" xmlns="http://www.w3.org/2000/svg">
<path d="M63.9847 0.298372C61.6688 1.02773 60.5439 3.21579 59.3529 9.36004C58.8897 11.7249 58.4486 14.5318 58.4486 15.0844C58.4486 15.4601 59.2206 15.5706 59.4411 15.2391C59.5073 15.1065 59.5955 14.5539 59.6396 13.9572C59.7499 12.7637 60.6542 8.03394 61.2056 5.93428C61.6908 4.09985 62.4628 2.59694 63.2789 1.88969C64.6022 0.784608 66.9622 0.917217 68.0209 2.19911C69.1458 3.52521 69.4325 5.53646 69.609 13.0731L69.7634 19.1953L70.4912 18.1344C71.6161 16.4326 72.4101 15.88 73.6673 15.88C74.5716 15.88 74.8804 15.9905 75.52 16.5431C76.8654 17.7365 76.8654 17.825 76.8654 28.9642C76.8654 37.4954 76.9095 39.1088 77.1742 39.1972C77.9241 39.4845 77.9682 38.9541 77.9682 28.8537C77.9682 17.4934 77.9462 17.2724 76.314 15.7916C75.0127 14.6202 72.785 14.4213 71.4617 15.3938L70.8662 15.8358L70.7338 11.5039C70.4692 3.4589 69.6751 1.09403 66.9843 0.298372C65.6609 -0.0994573 65.2639 -0.0994573 63.9847 0.298372Z" fill="white"/>
<path d="M64.3596 3.4368C62.5731 5.49225 61.0292 15.3496 58.5589 39.9708C58.3824 41.7389 58.0957 44.7226 57.8972 46.6013C57.6987 48.4799 57.412 51.3752 57.2355 53.0107C55.8901 66.2275 54.7432 74.2504 53.9933 75.6207C53.6624 76.2616 53.089 75.9743 52.5596 74.8913C51.9862 73.742 51.7215 72.2612 51.2804 67.8188C50.8172 63.1112 50.2437 61.4093 49.163 61.4093C48.6778 61.4093 47.994 62.2713 47.3985 63.5974C46.8692 64.8351 46.1634 65.6087 45.612 65.6087C43.671 65.6087 43.1858 62.7133 42.4579 45.9382C41.9065 33.3624 41.4654 28.6547 40.5611 25.5826C39.5907 22.2232 38.1129 22.0685 36.7675 25.1627C36.2602 26.3341 35.9735 27.2844 33.8781 35.1084C31.8049 42.7556 30.1948 46.4023 28.3641 47.5958C26.8422 48.5904 23.3133 48.944 11.6236 49.2534C1.78654 49.4966 0 49.7618 0 50.9111C0 51.6404 0.794019 52.0162 3.22019 52.4361C8.38131 53.298 21.1297 52.9665 27.6804 51.773C31.6725 51.0437 33.9002 49.3419 35.6206 45.7172C37.6938 41.3632 38.2893 40.3023 38.6422 40.236C39.3701 40.1034 39.5024 41.5621 39.7009 52.9002C40.0097 69.7859 40.3626 74.1399 41.6198 76.0185C42.7667 77.7645 43.5607 77.3667 45.215 74.2283C45.8546 73.0127 46.5824 71.8855 46.803 71.775C47.3764 71.4656 47.8176 71.6645 48.0822 72.3275C48.3249 73.0127 48.8763 78.6044 49.0748 82.5164C49.3394 87.9755 50.1114 93.1252 50.8834 94.6502C51.3686 95.6227 52.2729 96.5509 52.7581 96.5509C53.3978 96.5509 54.6991 95.2248 55.3828 93.8766C56.3753 91.8875 57.3679 88.2186 58.3163 82.8479C59.6176 75.5765 61.0071 63.4648 62.0878 49.6955C62.5069 44.6784 63.7421 27.5497 63.7421 26.975C63.7421 26.9529 63.8744 26.9308 64.0508 26.9308C64.2273 26.9308 64.4258 27.1739 64.492 27.4834C64.7346 28.4337 65.7492 30.4229 66.3006 31.0196C67.1607 31.97 67.7783 31.7711 68.7047 30.2461C69.1458 29.5167 69.5869 28.92 69.6751 28.92C70.3809 28.92 70.4471 29.6272 70.6015 41.1422C70.8662 58.5582 71.594 65.1666 73.5791 67.7525C74.0422 68.3713 74.2849 68.4819 74.9906 68.4819C77.2183 68.4819 79.049 65.1224 81.1884 56.989C81.431 56.0829 81.9824 53.9611 82.4015 52.2593C83.2837 48.7672 83.6587 47.9274 84.8497 46.7781C86.4157 45.2531 88.7095 44.59 90.8931 45.032C96.1204 46.0929 112.905 46.6676 115.971 45.894C117.537 45.4741 118 45.1868 118 44.5679C118 43.5291 115.199 43.1534 105.649 42.9545C94.3338 42.7114 91.3563 42.3798 89.3271 41.1201C88.092 40.3465 87.4744 39.2635 86.9671 37.0092C86.7686 36.0367 86.4157 35.0642 86.1951 34.8432C85.7099 34.357 84.5189 34.3349 83.8572 34.799C82.8426 35.5062 81.6957 38.5342 80.2621 44.2806C78.2108 52.6129 77.4609 54.8894 76.6228 55.685C76.1376 56.1492 76.0493 56.1492 75.7406 55.8397C75.1892 55.2872 74.7921 53.2096 74.5275 49.364C74.329 46.6676 74.329 43.0429 74.5495 34.1138C74.8583 21.3833 74.748 18.8858 73.8658 17.9797C73.4467 17.5597 73.4467 17.5597 72.9174 18.0902C72.6086 18.3996 71.8146 19.6373 71.1088 20.8529C69.7634 23.2398 69.1237 24.0576 68.6606 24.0576C67.8004 24.0576 67.3151 20.3003 67.271 13.4488C67.249 8.85169 66.9181 5.20492 66.4108 4.03354C66.0359 3.21578 65.8815 3.06107 65.3301 3.06107C64.9772 3.06107 64.5361 3.23788 64.3596 3.4368Z" fill="white"/>
<path d="M58.228 16.7641C58.228 17.0956 58.3383 17.2061 58.625 17.1619C58.8235 17.1177 59 16.9409 59 16.7641C59 16.5873 58.8235 16.4105 58.625 16.3663C58.3383 16.322 58.228 16.4326 58.228 16.7641Z" fill="white"/>
<path d="M58.1619 18.4438C57.9854 18.6206 58.1839 18.9742 58.4706 18.9742C58.5809 18.9742 58.6691 18.8195 58.6691 18.6427C58.6691 18.3112 58.4045 18.2007 58.1619 18.4438Z" fill="white"/>
<path d="M76.9757 40.5012C76.9757 40.678 77.0639 40.8769 77.1742 40.9432C77.4168 41.0979 77.902 40.5454 77.7035 40.3465C77.4389 40.0813 76.9757 40.1918 76.9757 40.5012Z" fill="white"/>
<path d="M77.0198 42.2251C77.1521 42.623 77.6374 42.6893 77.6374 42.3135C77.6374 42.1146 77.483 41.9599 77.2845 41.9599C77.086 41.9599 76.9757 42.0704 77.0198 42.2251Z" fill="white"/>
<path d="M36.988 55.1325C36.8116 55.3093 37.0101 55.6629 37.2968 55.6629C37.4071 55.6629 37.4953 55.5082 37.4953 55.3314C37.4953 54.9999 37.2307 54.8894 36.988 55.1325Z" fill="white"/>
<path d="M36.988 56.6796C36.6793 57.0111 36.8557 57.431 37.2968 57.431C37.6056 57.431 37.7159 57.3205 37.6718 57.0553C37.6056 56.6575 37.2307 56.4586 36.988 56.6796Z" fill="white"/>
<path d="M36.8998 63.73C37.1424 72.3054 37.8262 76.5047 39.326 78.4718C40.4729 79.9968 42.8991 80.9693 42.8991 79.9084C42.8991 79.6211 42.6123 79.4001 42.0609 79.2011C40.9361 78.8033 40.2523 78.1403 39.5906 76.77C38.7966 75.1786 38.2011 70.2721 38.0026 63.8405L37.8262 58.6466L37.2968 58.5803L36.7675 58.4919L36.8998 63.73Z" fill="white"/>
<path d="M63.4553 63.3101C63.2789 63.4869 63.4774 63.8405 63.7641 63.8405C63.8744 63.8405 63.9626 63.6858 63.9626 63.509C63.9626 63.1775 63.6979 63.067 63.4553 63.3101Z" fill="white"/>
<path d="M63.2348 65.0782C62.926 65.4097 63.1024 65.8297 63.5436 65.8297C63.8523 65.8297 63.9626 65.7192 63.9185 65.4539C63.8523 65.0561 63.4774 64.8572 63.2348 65.0782Z" fill="white"/>
<path d="M63.0142 67.0895C62.948 67.2 62.6834 68.946 62.4407 71.0235C60.6101 85.3896 59.1323 92.5063 57.2355 95.7995C56.1106 97.7223 54.3462 99.0042 52.8243 98.9821C52.0523 98.96 50.6849 98.3633 50.3761 97.8991C50.0011 97.3908 49.4056 97.5013 49.4056 98.098C49.4056 98.7169 50.5746 99.5567 51.8097 99.8662C54.1035 100.419 56.2871 99.2473 57.9854 96.5951C59.1985 94.6723 60.6321 89.7878 61.6467 84.1519C62.2643 80.7704 63.9626 68.2829 63.9626 67.2221C63.9626 66.9126 63.1686 66.8242 63.0142 67.0895Z" fill="white"/>
<path d="M45.4355 79.179C45.4355 79.378 45.5899 79.5327 45.7884 79.5327C46.1634 79.5327 46.0972 79.0464 45.7002 78.9138C45.5458 78.8696 45.4355 78.9801 45.4355 79.179Z" fill="white"/>
<path d="M44.046 79.4443C43.7372 79.7537 43.8916 80.2178 44.2886 80.1515C44.4871 80.1073 44.6636 79.9305 44.6636 79.7758C44.6636 79.4222 44.2665 79.2232 44.046 79.4443Z" fill="white"/>
<path d="M47.7735 94.4955C47.5308 94.7386 47.6411 95.0038 47.972 95.0038C48.1484 95.0038 48.3028 94.9154 48.3028 94.8049C48.3028 94.5176 47.9499 94.3186 47.7735 94.4955Z" fill="white"/>
<path d="M48.5234 96.5509C48.5234 96.794 48.6778 96.9929 48.8542 96.9929C49.0307 96.9929 49.185 96.794 49.185 96.5509C49.185 96.3078 49.0307 96.1089 48.8542 96.1089C48.6778 96.1089 48.5234 96.3078 48.5234 96.5509Z" fill="white"/>
</svg>
