<svg width="25" height="25" viewBox="0 0 25 25" fill="none" xmlns="http://www.w3.org/2000/svg">
<path d="M8.33333 0L0.5 2.63889C0.208333 2.73611 0 2.98611 0 3.30556V24.3056C0 24.4897 0.0731646 24.6664 0.203398 24.7966C0.333632 24.9268 0.510266 25 0.694444 25L0.916667 24.9583L8.33333 22.0833L16.6667 25L24.5 22.3611C24.7917 22.2639 25 22.0139 25 21.6944V0.694444C25 0.510266 24.9268 0.333632 24.7966 0.203398C24.6664 0.0731646 24.4897 0 24.3056 0L24.0833 0.0416666L16.6667 2.91667L8.33333 0ZM6.94444 3.40278V19.6528L2.77778 21.2639V4.80556L6.94444 3.40278ZM9.72222 3.43056L15.2778 5.375V21.5694L9.72222 19.625V3.43056ZM22.2222 3.75V20.1944L18.0556 21.5972V5.36111L22.2222 3.75ZM6.19444 4.58333L3.56944 5.51389V8.5L6.19444 7.56944V4.58333ZM6.19444 8.40278L3.56944 9.33333V12.3194L6.19444 11.3889V8.40278ZM6.19444 12.2222L3.56944 13.1528V16.1389L6.19444 15.2083V12.2222ZM6.19444 16.0417L3.56944 16.9722V19.9583L6.19444 19.0278V16.0417Z" fill="white"/>
</svg>
