<svg width="23" height="25" viewBox="0 0 23 25" fill="none" xmlns="http://www.w3.org/2000/svg">
<path d="M0 19.1554C0 20.0387 0.682564 20.6196 1.84048 20.6196H6.98409C7.0816 22.9551 8.92209 25 11.4939 25C14.0779 25 15.9184 22.9671 16.0158 20.6196H21.1595C22.3052 20.6196 23 20.0387 23 19.1554C23 17.9453 21.7568 16.8563 20.7086 15.7793C19.904 14.9444 19.6847 13.2261 19.5871 11.8344C19.5018 7.06681 18.2586 3.99323 15.0164 2.83157C14.602 1.24637 13.2979 0 11.4939 0C9.70216 0 8.38579 1.24637 7.98356 2.83157C4.74138 3.99323 3.49814 7.06681 3.41282 11.8344C3.31531 13.2261 3.09591 14.9444 2.29146 15.7793C1.23105 16.8563 0 17.9453 0 19.1554ZM2.3646 18.7924V18.6472C2.584 18.2963 3.31531 17.5823 3.94913 16.8805C4.8267 15.9125 5.24112 14.3514 5.35082 11.9918C5.44832 6.70379 7.03285 5.02179 9.1171 4.45306C9.42182 4.38045 9.59247 4.23524 9.60466 3.92063C9.64122 2.66215 10.3725 1.77881 11.4939 1.77881C12.6274 1.77881 13.3465 2.66215 13.3953 3.92063C13.4075 4.23524 13.566 4.38045 13.8706 4.45306C15.9672 5.02179 17.5517 6.70379 17.6492 11.9918C17.7588 14.3514 18.1733 15.9125 19.0387 16.8805C19.6847 17.5823 20.4038 18.2963 20.6232 18.6472V18.7924H2.3646ZM8.88553 20.6196H14.1144C14.017 22.2653 12.9688 23.2938 11.4939 23.2938C10.0313 23.2938 8.97085 22.2653 8.88553 20.6196Z" fill="white"/>
</svg>
