<svg width="22" height="25" viewBox="0 0 22 25" fill="none" xmlns="http://www.w3.org/2000/svg">
<path d="M1.76046 20.2376H20.2396C21.3354 20.2376 22 19.6674 22 18.8005C22 17.6128 20.8108 16.5439 19.8082 15.4869C19.0387 14.6675 18.8288 12.981 18.7355 11.6151C18.6539 7.05463 17.4648 3.91924 14.3635 2.7791C13.9205 1.22328 12.7197 0 10.9942 0C9.28033 0 8.06783 1.22328 7.63645 2.7791C4.53523 3.91924 3.34605 7.05463 3.26444 11.6151C3.17117 12.981 2.96131 14.6675 2.19183 15.4869C1.17753 16.5439 0 17.6128 0 18.8005C0 19.6674 0.652888 20.2376 1.76046 20.2376ZM10.9942 25C12.9762 25 14.4218 23.5272 14.5733 21.8646H7.42659C7.57816 23.5272 9.02384 25 10.9942 25Z" fill="white"/>
</svg>
