<svg width="20" height="18" viewBox="0 0 20 18" fill="none" xmlns="http://www.w3.org/2000/svg">
<path d="M5.80353 9.7708H14.1965V7.46348C14.1965 5.69018 15.3854 4.38036 17.0681 4.38036H17.1789V2.34509C17.1789 1.02519 16.3225 0.158691 15.063 0.158691H4.93703C3.6675 0.158691 2.81108 1.02519 2.81108 2.34509V4.38036H2.92192C4.61462 4.38036 5.80353 5.69018 5.80353 7.46348V9.7708ZM0 13.5894C0 14.8488 0.836272 15.6852 2.06549 15.6852H17.9345C19.1536 15.6852 20 14.8488 20 13.5894V7.46348C20 6.21411 19.1536 5.36776 17.9345 5.36776H17.4307C16.2116 5.36776 15.3653 6.21411 15.3653 7.46348V10.9396H4.62469V7.46348C4.62469 6.21411 3.78842 5.36776 2.55919 5.36776H2.06549C0.836272 5.36776 0 6.21411 0 7.46348V13.5894ZM3.55668 17.8413H4.19144C4.73552 17.8413 5.08817 17.4988 5.08817 16.9547V14.8187H2.67003V16.9547C2.67003 17.4988 3.0126 17.8413 3.55668 17.8413ZM15.8086 17.8413H16.4333C16.9773 17.8413 17.3199 17.4988 17.3199 16.9547V14.8187H14.9119V16.9547C14.9119 17.4988 15.2645 17.8413 15.8086 17.8413Z" fill="#1A0129"/>
</svg>
