<svg width="28" height="25" viewBox="0 0 28 25" fill="none" xmlns="http://www.w3.org/2000/svg">
<path d="M5.07578 23.2274C5.32007 23.6473 5.63969 23.8172 6.10854 23.7798C7.42178 23.6969 8.32672 23.9452 9.68373 24.8231C10.0734 25.0501 10.4595 25.0602 10.8367 24.8441L26.3555 15.9526C26.7235 15.7418 26.9077 15.4049 26.9043 14.9565C26.8168 13.3513 27.0525 12.4494 27.7907 11.3569C28.0577 10.9727 28.0693 10.613 27.825 10.1931L22.9282 1.77622C22.6786 1.34715 22.359 1.17732 21.8954 1.22379C20.573 1.31201 19.6628 1.05455 18.311 0.185817C17.916 -0.0503985 17.53 -0.0604962 17.162 0.150351L1.64321 9.04187C1.26605 9.25797 1.08179 9.5948 1.09043 10.0524C1.17269 11.6485 0.942259 12.5595 0.213273 13.6466C-0.0590878 14.0218 -0.0706517 14.3814 0.178968 14.8104L5.07578 23.2274ZM8.83004 21.0155L3.98634 12.6899C3.69954 12.1969 3.84339 11.6641 4.34013 11.3795L17.8443 3.64227C18.3503 3.35236 18.8779 3.50043 19.1647 3.99339L24.0084 12.319C24.3005 12.8211 24.1606 13.3395 23.6546 13.6294L10.1504 21.3666C9.6537 21.6512 9.12213 21.5176 8.83004 21.0155ZM6.39209 14.1476L7.62476 13.4413L6.56786 11.6246L5.53756 12.2149C5.39958 12.294 5.38299 12.4131 5.45734 12.5409L6.39209 14.1476ZM8.10226 17.0871L9.33493 16.3808L8.28864 14.5824L7.05597 15.2887L8.10226 17.0871ZM9.69557 19.8258C9.77524 19.9627 9.88215 19.9989 10.0201 19.9198L11.0504 19.3295L9.99879 17.5219L8.76612 18.2282L9.69557 19.8258ZM18.0105 7.49077L19.2432 6.78451L18.3084 5.17781C18.2341 5.05 18.1219 5.00472 17.9839 5.08379L16.9536 5.67409L18.0105 7.49077ZM19.7207 10.4303L20.9533 9.72404L19.907 7.92563L18.6744 8.63188L19.7207 10.4303ZM21.4362 13.379L22.4665 12.7887C22.6045 12.7096 22.6263 12.5997 22.5466 12.4627L21.6172 10.8651L20.3845 11.5714L21.4362 13.379ZM12.2095 18.6654L20.2771 14.0431L15.7945 6.33821L7.72693 10.9605L12.2095 18.6654Z" fill="white"/>
</svg>
