<svg width="29" height="26" viewBox="0 0 29 26" fill="none" xmlns="http://www.w3.org/2000/svg">
<path d="M5.77012 24.0918C6.0144 24.5116 6.33403 24.6816 6.80288 24.6441C8.11611 24.5612 9.02106 24.8096 10.3781 25.6874C10.7678 25.9145 11.1539 25.9246 11.531 25.7085L27.0498 16.817C27.4178 16.6062 27.602 16.2693 27.5987 15.8209C27.5111 14.2157 27.7469 13.3137 28.485 12.2213C28.7521 11.8371 28.7637 11.4774 28.5194 11.0575L23.6226 2.64059C23.3729 2.21153 23.0533 2.0417 22.5898 2.08817C21.2674 2.17639 20.3571 1.91893 19.0054 1.0502C18.6103 0.813981 18.2243 0.803884 17.8563 1.01473L2.33755 9.90625C1.96039 10.1223 1.77613 10.4592 1.78476 10.9168C1.86703 12.5129 1.6366 13.4239 0.907609 14.511C0.635248 14.8862 0.623684 15.2458 0.873304 15.6748L5.77012 24.0918ZM7.12898 23.0332L2.4765 15.0362C3.32404 13.942 3.61137 12.7915 3.4686 11.2179L18.4354 2.64263C19.7281 3.55738 20.885 3.88044 22.2637 3.69912L26.9162 11.6961C26.0686 12.7903 25.7721 13.9461 25.9187 15.5053L10.9519 24.0806C9.65536 23.1802 8.50765 22.8519 7.12898 23.0332ZM9.67998 21.6203C9.96147 22.1041 10.4785 22.2339 10.9569 21.9599L24.0563 14.4545C24.5439 14.1752 24.6799 13.6711 24.3985 13.1873L19.7035 5.11731C19.4273 4.64261 18.9141 4.49845 18.4266 4.77779L5.32714 12.2831C4.84879 12.5572 4.70883 13.0756 4.985 13.5503L9.67998 21.6203ZM10.501 20.4805L9.59807 18.9285L10.8123 18.2328L11.8321 19.9856L10.8294 20.5601C10.6914 20.6391 10.5806 20.6174 10.501 20.4805ZM8.95542 17.8239L7.94102 16.0803L9.1553 15.3846L10.1697 17.1282L8.95542 17.8239ZM7.29838 14.9757L6.39019 13.4146C6.31583 13.2868 6.34694 13.1716 6.48493 13.0926L7.48762 12.5181L8.51266 14.28L7.29838 14.9757ZM18.5856 8.50868L17.5605 6.74679L18.5633 6.17227C18.7013 6.0932 18.8081 6.12935 18.8825 6.25716L19.7907 7.81821L18.5856 8.50868ZM20.2426 11.3569L19.2282 9.61329L20.4333 8.92282L21.4477 10.6664L20.2426 11.3569ZM21.905 14.2143L20.8853 12.4615L22.0904 11.771L22.9933 13.323C23.0729 13.4599 23.0457 13.5607 22.9077 13.6398L21.905 14.2143ZM12.9452 19.3478L8.60071 11.8803L16.4475 7.38451L20.792 14.852L12.9452 19.3478Z" fill="white"/>
</svg>
